<?xml version="1.0" standalone="no"?>
<!DOCTYPE svg PUBLIC "-//W3C//DTD SVG 20010904//EN"
 "http://www.w3.org/TR/2001/REC-SVG-20010904/DTD/svg10.dtd">
<svg version="1.0" xmlns="http://www.w3.org/2000/svg"
 width="256.000000pt" height="256.000000pt" viewBox="0 0 256.000000 256.000000"
 preserveAspectRatio="xMidYMid meet">
<metadata>
Created by potrace 1.10, written by Peter Selinger 2001-2011
</metadata>
<g transform="translate(0.000000,256.000000) scale(0.100000,-0.100000)"
fill="#000000" stroke="none">
<path d="M640 2000 l0 -80 -80 0 -80 0 0 -80 0 -80 -80 0 -80 0 0 -80 0 -80
-80 0 -80 0 0 -160 0 -160 80 0 80 0 0 -80 0 -80 80 0 80 0 0 -80 0 -80 80 0
80 0 0 -80 0 -80 80 0 80 0 0 -80 0 -80 80 0 80 0 0 -80 0 -80 80 0 80 0 0
-80 0 -80 160 0 160 0 0 80 0 80 80 0 80 0 0 80 0 80 80 0 80 0 0 80 0 80 80
0 80 0 0 80 0 80 80 0 80 0 0 80 0 80 80 0 80 0 0 80 0 80 80 0 80 0 0 160 0
160 -80 0 -80 0 0 80 0 80 -80 0 -80 0 0 80 0 80 -80 0 -80 0 0 80 0 80 -640
0 -640 0 0 -80z m1238 -13 l3 -48 -593 5 c-326 3 -596 6 -600 6 -10 0 -10 74
-1 83 3 4 272 6 597 5 l591 -3 3 -48z m42 -147 l0 -79 78 -3 77 -3 3 -77 3
-77 77 -3 77 -3 0 -155 0 -155 -77 -3 -77 -3 -3 -77 -3 -77 -77 -3 -77 -3 -3
-77 -3 -77 -77 -3 -77 -3 -3 -77 -3 -77 -77 -3 -77 -3 -3 -77 -3 -77 -77 -3
-77 -3 -3 -77 -3 -77 -77 -3 c-90 -3 -106 -17 -21 -17 l58 0 0 -50 0 -50 -64
-5 c-36 -3 -87 -3 -115 0 l-51 5 -3 53 c-3 44 0 52 15 53 10 1 2 4 -17 8 l-35
6 -3 77 -3 77 -77 3 -77 3 -3 77 -3 77 -77 3 -77 3 -3 71 -3 71 58 -4 c82 -6
83 -7 84 -55 1 -83 18 -87 18 -5 l1 77 80 0 80 0 0 -80 0 -80 -77 0 c-93 0
-89 -11 7 -19 54 -5 70 -4 70 6 0 7 10 13 23 14 12 0 16 3 10 6 -9 3 -13 28
-13 73 0 45 4 70 13 73 6 3 2 6 -10 6 -17 1 -23 7 -24 24 0 12 -3 16 -6 10 -3
-8 -26 -13 -63 -13 -67 0 -70 4 -70 84 0 29 -5 57 -12 64 -7 7 -37 12 -68 12
-31 0 -61 5 -68 12 -16 16 -16 100 0 116 9 9 7 12 -10 12 -21 0 -22 4 -22 73
l0 72 48 -3 c90 -5 92 -7 92 -60 0 -26 5 -54 10 -62 7 -10 10 6 10 56 l0 71
53 -4 c91 -7 95 -9 100 -51 3 -32 4 -30 5 14 1 27 6 54 11 60 6 5 11 36 13 69
l3 60 137 5 c75 3 140 8 144 13 4 4 -63 7 -149 7 l-157 0 0 77 c0 88 -17 91
-22 3 l-3 -55 -57 -5 c-85 -8 -82 -20 5 -20 l77 0 0 -80 0 -80 -160 0 -160 0
0 80 0 80 80 0 80 0 0 80 0 80 -80 0 -80 0 -1 73 c0 74 -17 71 -18 -4 l-1 -37
-55 -4 c-31 -3 -61 -10 -67 -16 -9 -9 6 -12 65 -12 l77 0 0 -80 0 -80 -80 0
-80 0 0 76 c0 47 -4 73 -10 69 -5 -3 -10 -26 -10 -50 0 -64 -7 -75 -49 -76
-75 -1 -78 -18 -3 -18 l72 -1 0 -80 0 -80 -80 0 -80 0 0 160 0 160 80 0 80 0
0 80 0 80 640 0 640 0 0 -80z m-1306 24 c21 -54 -13 -94 -68 -80 -22 5 -26 12
-26 45 0 47 4 51 51 51 24 0 39 -5 43 -16z m1421 -39 l0 -50 -45 0 -45 0 -3
39 c-5 59 2 68 50 64 l43 -3 0 -50z m-1100 -145 l0 -55 -52 -3 -53 -3 0 54 c0
29 3 57 7 61 4 4 28 6 53 4 l45 -3 0 -55z m-481 24 c8 -20 8 -58 0 -78 -4 -11
-19 -16 -50 -16 l-44 0 0 48 c0 27 3 52 7 55 14 14 81 7 87 -9z m1741 -39 l0
-50 -38 -3 c-21 -2 -45 2 -53 9 -14 12 -20 80 -7 93 4 4 28 6 53 4 l45 -3 0
-50z m-1732 -77 c-4 -7 -10 -43 -13 -80 -5 -60 -3 -68 12 -68 10 0 18 -7 18
-17 0 -16 8 -17 82 -10 46 4 115 9 153 10 l70 2 0 -60 0 -60 -87 -5 c-122 -8
-122 -20 0 -20 l102 0 0 -80 0 -80 -160 0 -160 0 0 80 0 80 -80 0 -80 0 0 153
c0 85 3 157 7 160 3 4 37 7 75 7 53 0 67 -3 61 -12z m311 -40 c3 -13 7 -42 8
-65 l4 -43 -66 0 -66 0 4 43 c6 86 7 87 62 87 43 0 50 -3 54 -22z m-464 -95
c0 -60 -4 -114 -9 -121 -5 -9 -24 -12 -52 -10 l-44 3 -3 104 c-1 58 0 111 2
118 4 8 23 13 56 13 l50 0 0 -107z m2045 -13 l0 -115 -50 0 -50 0 -3 104 c-1
58 0 111 3 118 3 10 19 13 52 11 l48 -3 0 -115z m-160 -225 l0 -50 -50 0 -50
0 -3 38 c-4 52 12 69 62 65 l41 -3 0 -50z m-1735 -6 l0 -50 -47 3 -48 3 -3 48
-3 47 50 0 51 0 0 -51z m500 -169 l0 -80 -80 0 -80 0 0 80 0 80 80 0 80 0 0
-80z m-186 37 c3 -12 7 -44 9 -70 l5 -48 -72 3 -71 3 -3 70 -3 70 66 -3 c57
-3 66 -6 69 -25z m1261 -22 l0 -50 -50 0 -50 0 -3 38 c-4 52 12 69 62 65 l41
-3 0 -50z m-1407 -8 l3 -48 -53 3 -53 3 -3 48 -3 48 53 -3 53 -3 3 -48z m160
-155 l3 -53 -53 3 -53 3 -3 53 -3 53 53 -3 53 -3 3 -53z m1087 3 l0 -50 -50 0
-50 0 -3 38 c-4 52 12 69 62 65 l41 -3 0 -50z m-927 -163 l3 -53 -53 3 -53 3
-3 53 -3 53 53 -3 53 -3 3 -53z m767 3 l0 -50 -50 0 -50 0 -3 44 c-4 52 7 62
63 59 l40 -3 0 -50z m-607 -163 l3 -53 -53 3 -53 3 -3 53 -3 53 53 -3 53 -3 3
-53z m447 3 l0 -50 -50 0 -50 0 -3 44 c-4 52 7 62 63 59 l40 -3 0 -50z"/>
<path d="M1602 1828 l-2 -68 -79 0 c-52 0 -81 4 -83 12 -2 6 -32 13 -69 16
-43 3 -68 9 -76 20 -12 14 -13 13 -13 -6 0 -21 -5 -22 -77 -23 -43 -1 -105 -5
-138 -9 -41 -5 9 -8 158 -9 l217 -1 0 -80 0 -80 80 0 80 0 1 -152 2 -153 12
140 c7 77 13 141 14 143 0 2 25 2 54 0 l52 -3 8 -65 c4 -36 10 -102 13 -147 5
-80 5 -83 -16 -83 -18 0 -20 -3 -11 -14 7 -8 11 -37 9 -68 l-3 -53 -95 -7
c-139 -11 -140 -16 -2 -17 l122 -1 1 -77 c0 -85 17 -76 18 10 l1 47 48 1 c85
1 94 18 10 18 l-78 1 0 80 0 80 80 0 80 0 0 -77 c0 -93 11 -89 19 7 5 54 4 70
-6 70 -9 0 -13 20 -13 75 l0 74 73 4 c39 1 3 4 -80 5 l-153 2 0 80 0 80 -80 0
-80 0 0 80 0 80 148 2 147 1 -140 11 -140 11 -6 55 -6 55 -1 -67z m-34 -87 c9
-5 12 -25 10 -57 l-3 -49 -50 0 c-50 0 -50 0 -53 34 -6 63 4 81 46 81 20 0 43
-4 50 -9z m326 -327 c12 -5 16 -20 16 -60 l0 -54 -70 0 -70 0 0 54 c0 34 5 56
13 59 18 8 93 8 111 1z"/>
<path d="M1920 1677 l0 -77 77 0 c87 0 90 12 5 20 l-57 5 -5 57 c-8 85 -20 82
-20 -5z"/>
<path d="M946 1574 c-9 -24 -7 -97 4 -114 7 -10 10 7 10 58 0 73 -3 85 -14 56z"/>
<path d="M2081 1505 c0 -59 3 -83 9 -70 5 11 9 43 9 70 0 28 -4 59 -9 70 -6
13 -9 -11 -9 -70z"/>
<path d="M1441 1368 c0 -79 17 -70 18 10 l1 42 48 1 c85 1 94 18 10 18 l-78 1
1 -72z"/>
<path d="M940 1268 c33 -15 632 -15 675 0 22 7 -71 10 -335 11 -278 0 -359 -3
-340 -11z"/>
<path d="M1593 1040 c0 -36 2 -50 4 -32 2 17 2 47 0 65 -2 17 -4 3 -4 -33z"/>
<path d="M1258 951 c10 -6 13 -28 10 -80 -2 -41 1 -72 7 -75 6 -2 9 27 7 80
-3 71 -6 84 -20 84 -13 0 -14 -2 -4 -9z"/>
<path d="M1590 950 c33 -11 120 -11 145 0 13 6 -13 8 -75 8 -62 0 -86 -3 -70
-8z"/>
<path d="M626 1238 c-5 -21 -5 -55 0 -75 l8 -38 4 38 c2 20 2 54 0 75 l-4 37
-8 -37z"/>
</g>
</svg>
