 <svg  version="1.0" xmlns="http://www.w3.org/2000/svg"  width="768.000000pt" height="768.000000pt" viewBox="0 0 768.000000 768.000000"  preserveAspectRatio="xMidYMid meet">  <g transform="translate(0.000000,768.000000) scale(0.100000,-0.100000)" fill="#800000" stroke="none"> <path d="M1910 5990 l0 -240 -240 0 -240 0 0 -240 0 -240 -240 0 -241 0 2 -236 c0 -129 -1 -238 -4 -241 -3 -3 -112 -4 -241 -4 l-236 2 0 -481 0 -481 236 1 c130 1 238 -1 241 -3 2 -3 4 -111 3 -241 l-1 -237 237 1 c130 1 238 -1 241 -3 2 -3 4 -111 3 -242 l-1 -236 236 2 c130 0 239 -1 242 -4 3 -3 4 -112 4 -242 l-2 -236 236 2 c130 0 239 -1 242 -4 3 -3 4 -112 4 -242 l-2 -236 236 2 c130 0 239 -1 242 -4 3 -3 4 -112 4 -242 l-2 -236 236 2 c130 0 239 -1 242 -4 3 -3 4 -112 4 -241 l-2 -236 481 0 481 0 -2 236 c0 129 1 238 4 241 3 3 112 4 242 4 l236 -2 -2 236 c0 130 1 239 4 242 3 3 112 4 242 4 l236 -2 -2 236 c0 130 1 239 4 242 3 3 112 4 242 4 l236 -2 -2 236 c0 130 1 239 4 242 3 3 112 4 242 4 l236 -2 -2 236 c0 130 1 239 4 242 3 3 112 4 242 4 l236 -2 -2 236 c0 130 1 239 4 242 3 3 112 4 241 4 l236 -2 0 481 0 481 -236 -2 c-129 0 -238 1 -241 4 -3 3 -4 112 -4 242 l2 236 -236 -2 c-130 0 -239 1 -242 4 -3 3 -4 112 -4 241 l2 236 -242 2 -241 3 1 238 2 237 -1921 0 -1920 0 0 -240z m3700 100 c18 -18 20 -33 20 -135 0 -171 42 -156 -428 -151 -213 2 -650 8 -972 14 -545 10 -1718 15 -2033 9 -137 -2 -138 -2 -158 23 -17 22 -19 38 -17 123 5 156 -240 137 1809 137 1746 0 1759 0 1779 -20z m38 -339 c46 -5 86 -12 90 -16 4 -3 9 -111 12 -238 l5 -232 25 3 c88 11 298 12 360 2 62 -11 73 -15 82 -39 16 -38 23 -337 9 -386 -15 -55 -1 -69 54 -54 49 14 348 6 387 -9 20 -8 29 -21 35 -49 10 -50 10 -796 0 -846 -12 -57 -31 -61 -267 -62 l-205 0 0 -190 c0 -226 -6 -262 -43 -277 -38 -15 -327 -22 -382 -9 -61 14 -73 2 -59 -59 11 -48 6 -338 -6 -378 -4 -13 -19 -28 -34 -34 -37 -15 -326 -22 -381 -9 -61 14 -73 2 -59 -59 11 -48 6 -338 -6 -378 -13 -40 -48 -46 -263 -48 l-204 -2 -2 -204 c-2 -216 -8 -250 -48 -263 -13 -4 -115 -9 -226 -11 l-204 -2 -2 -204 c-2 -216 -8 -250 -48 -263 -13 -4 -117 -10 -231 -12 -183 -4 -208 -7 -205 -21 3 -14 23 -15 161 -13 206 3 197 11 197 -156 0 -171 6 -165 -196 -162 -140 2 -155 1 -168 -16 -9 -12 -17 -15 -27 -9 -8 5 -76 11 -151 14 -184 7 -182 5 -186 173 -4 141 2 155 66 164 60 8 44 19 -36 25 -142 10 -152 29 -150 296 l1 184 -199 1 c-231 2 -251 8 -270 72 -13 42 -18 322 -7 363 5 21 10 23 42 16 20 -4 117 -10 216 -13 176 -6 180 -6 191 -30 13 -25 14 -25 28 42 l7 28 -236 -2 c-162 -1 -240 2 -249 10 -10 8 -21 8 -40 1 -38 -14 -321 -11 -371 4 -64 19 -70 41 -70 248 0 97 3 180 7 184 5 4 39 0 77 -9 44 -11 112 -17 187 -17 167 -1 161 8 167 -196 4 -144 15 -213 29 -188 3 5 7 108 9 229 l4 220 -240 0 -240 0 0 240 0 240 -440 0 c-242 0 -454 4 -472 8 -22 6 -33 16 -39 35 -4 15 -8 119 -9 230 l-2 204 -209 3 c-115 1 -219 6 -231 10 -11 4 -24 17 -28 28 -4 12 -10 200 -12 417 -5 442 -1 473 52 500 32 16 278 27 338 16 54 -11 60 -18 40 -57 -14 -27 -19 -68 -23 -207 -4 -153 -7 -175 -23 -187 -21 -15 -16 -20 38 -30 54 -9 64 -19 71 -76 7 -53 19 -70 27 -40 6 24 61 31 256 31 143 0 160 2 196 22 36 20 57 23 211 26 170 4 171 4 200 -21 l29 -25 3 -147 c5 -198 20 -185 -213 -185 -156 0 -190 -3 -240 -20 -32 -11 -71 -20 -87 -20 -43 0 -33 -17 15 -24 23 -3 49 -6 57 -6 8 0 103 0 211 -1 108 0 216 2 240 6 l44 7 0 208 c0 115 3 212 7 215 4 4 36 0 72 -9 41 -10 107 -16 180 -16 107 0 117 -2 143 -24 28 -24 28 -25 34 -180 3 -99 10 -161 17 -168 6 -6 14 -9 17 -6 3 3 8 95 11 204 3 109 10 203 14 207 4 5 23 1 41 -9 27 -14 64 -19 179 -21 224 -6 220 -3 220 -139 0 -140 17 -114 22 34 3 70 8 134 12 143 12 27 -31 31 -264 29 -118 -2 -219 -2 -225 -1 -5 1 -91 1 -190 0 -99 -2 -205 -3 -235 -3 l-55 -1 4 243 3 242 -242 0 -242 0 3 -241 4 -241 -245 -1 -245 -2 3 469 c2 333 6 474 14 484 9 11 56 13 235 11 123 -1 226 1 230 4 3 4 5 107 4 230 -2 182 0 226 12 235 10 9 364 13 1418 14 772 2 1589 4 1814 6 226 1 447 -2 493 -7z m-3833 -146 c23 -22 25 -32 25 -118 0 -79 -3 -96 -20 -114 -24 -27 -89 -37 -178 -30 -94 7 -103 22 -100 150 4 131 10 137 150 137 92 0 101 -2 123 -25z m4275 5 c18 -18 20 -33 20 -141 0 -66 -5 -129 -10 -140 -10 -17 -22 -19 -135 -19 -158 0 -155 -3 -155 162 0 158 0 158 150 158 97 0 112 -2 130 -20z m-4755 -485 c24 -23 25 -30 25 -138 0 -159 -2 -161 -148 -165 -102 -3 -112 -2 -132 18 -20 20 -21 29 -18 147 4 161 6 163 150 163 92 0 101 -2 123 -25z m5235 5 c18 -18 20 -33 20 -141 0 -66 -5 -129 -10 -140 -10 -17 -22 -19 -137 -19 -116 0 -129 2 -150 22 -22 20 -23 29 -23 144 0 157 -3 154 162 154 105 0 120 -2 138 -20z m-4269 -459 c16 -20 19 -40 19 -136 0 -78 5 -129 17 -164 9 -28 13 -55 9 -59 -13 -12 -363 -15 -386 -2 -19 10 -20 12 -3 43 13 24 18 67 23 167 3 74 9 141 14 148 16 25 52 32 169 29 111 -2 120 -3 138 -26z m-1393 -19 c11 -14 13 -76 7 -332 -6 -278 -8 -318 -24 -340 -23 -32 -68 -42 -173 -38 -75 3 -91 6 -110 26 -23 23 -23 23 -23 342 0 293 1 321 18 337 14 14 41 19 125 24 127 7 162 3 180 -19z m6142 -2 c19 -19 20 -33 20 -338 0 -259 -3 -322 -14 -338 -12 -16 -32 -20 -127 -25 -85 -5 -120 -3 -145 7 l-34 14 0 335 c0 401 -16 365 162 365 105 0 120 -2 138 -20z m-476 -882 c22 -31 23 -245 2 -274 -12 -16 -32 -20 -127 -25 -85 -5 -120 -3 -145 7 l-34 14 0 130 c0 174 -3 170 164 170 118 0 126 -1 140 -22z m-5217 -11 c15 -14 19 -39 21 -135 5 -156 4 -157 -154 -157 -105 0 -115 2 -136 23 -20 19 -23 35 -26 110 -2 48 0 103 5 122 14 52 40 61 165 58 87 -2 111 -6 125 -21z m658 -468 c22 -4 93 -8 157 -9 116 0 118 0 135 -27 15 -22 18 -52 20 -153 1 -76 8 -144 17 -173 14 -48 14 -48 -10 -58 -36 -13 -311 -10 -359 5 -61 18 -69 43 -73 226 -4 182 3 216 46 205 15 -4 45 -11 67 -16z m4079 -1 c22 -31 23 -245 2 -274 -12 -16 -32 -20 -127 -25 -85 -5 -120 -3 -145 7 l-34 14 0 129 0 129 28 21 c23 18 42 20 144 21 110 0 118 -1 132 -22z m-4233 -17 c16 -20 19 -40 19 -136 0 -127 -6 -140 -65 -151 -18 -3 -77 -4 -129 -2 -129 4 -140 14 -144 136 -2 48 0 103 5 122 14 53 39 61 176 58 111 -3 120 -5 138 -27z m466 -455 c27 -23 28 -28 31 -136 2 -61 1 -122 -2 -135 -9 -35 -63 -48 -184 -43 -142 4 -146 9 -150 167 -5 171 -9 167 170 170 100 1 109 -1 135 -23z m3287 -8 c22 -31 23 -245 2 -274 -12 -16 -32 -20 -127 -25 -85 -5 -120 -3 -145 7 l-34 14 0 129 0 129 28 21 c23 18 42 20 144 21 110 0 118 -1 132 -22z m-2803 -467 c22 -18 24 -27 27 -136 2 -64 1 -127 -2 -140 -9 -35 -63 -48 -184 -43 -142 4 -146 9 -150 167 -4 128 3 157 40 164 13 2 73 5 134 6 96 1 115 -2 135 -18z m2323 -13 c22 -31 23 -245 2 -274 -12 -16 -32 -20 -127 -25 -85 -5 -120 -3 -145 7 l-34 14 0 134 c0 170 -5 165 167 165 115 1 123 0 137 -21z m-1834 -468 c18 -18 20 -33 20 -149 0 -144 -4 -155 -65 -167 -18 -3 -77 -4 -129 -2 -135 4 -140 10 -144 167 -4 128 3 157 40 164 13 2 76 5 141 6 105 1 119 -1 137 -19z m1354 -12 c22 -31 23 -245 2 -274 -12 -16 -32 -20 -127 -25 -85 -5 -120 -3 -145 7 l-34 14 0 134 c0 170 -5 165 167 165 115 1 123 0 137 -21z"/> <path d="M2355 5663 c-4 -10 -10 -77 -14 -149 -4 -81 -12 -138 -19 -147 -10 -12 -43 -16 -150 -19 -114 -3 -145 -7 -184 -25 -94 -43 -54 -53 209 -53 100 0 184 3 186 8 8 12 -5 402 -13 402 -4 0 -11 -8 -15 -17z"/> <path d="M4798 5473 c-2 -104 -3 -189 -3 -189 0 -5 124 -7 473 -5 215 0 392 5 392 10 0 8 -125 14 -570 30 -113 4 -217 12 -231 18 -31 14 -39 58 -39 221 0 57 -4 102 -9 102 -6 0 -11 -80 -13 -187z"/> <path d="M3837 5394 c-7 -70 -16 -80 -58 -65 -19 6 -104 11 -211 11 -145 0 -186 -3 -216 -17 -27 -12 -77 -17 -184 -21 -82 -2 -148 -8 -148 -13 0 -5 62 -9 138 -9 75 0 143 -4 151 -9 13 -8 13 -15 2 -48 -7 -21 -16 -105 -20 -186 -6 -113 -12 -152 -23 -164 -12 -11 -52 -17 -159 -24 -150 -9 -200 -17 -206 -36 -6 -16 131 -25 302 -21 l140 3 3 172 c1 94 -2 198 -7 230 -5 32 -6 62 -2 66 5 4 225 9 489 10 l482 2 2 -243 3 -243 229 1 c126 0 233 3 238 6 9 6 11 343 2 419 l-6 50 -158 -4 c-182 -4 -287 9 -310 38 -31 39 -60 45 -238 51 -167 5 -174 6 -193 29 -10 13 -19 34 -19 47 0 47 -17 23 -23 -32z m875 -182 c9 -9 14 -55 16 -152 3 -138 3 -140 -22 -165 -24 -24 -30 -25 -145 -25 -117 0 -120 1 -140 26 -19 24 -21 40 -21 148 0 104 3 126 20 154 l21 34 129 -4 c88 -2 133 -7 142 -16z"/> <path d="M2888 5325 c-8 -41 -4 -45 52 -45 64 0 75 18 13 22 -41 3 -48 6 -53 28 -6 25 -6 25 -12 -5z"/> <path d="M2395 5261 c-7 -7 -6 -404 1 -439 l6 -31 137 6 c75 3 177 1 226 -5 68 -8 92 -8 100 1 6 8 8 95 5 241 l-5 229 -233 2 c-128 0 -235 -1 -237 -4z m397 -69 c22 -21 23 -30 23 -162 0 -132 -1 -141 -23 -162 -21 -22 -31 -23 -153 -23 -175 0 -172 -4 -167 186 4 188 4 189 190 185 97 -1 110 -4 130 -24z"/> <path d="M1860 5198 c-16 -35 -20 -66 -20 -166 0 -189 2 -187 -200 -196 -104 -4 -171 -18 -140 -29 8 -3 101 -7 207 -9 l191 -3 6 35 c8 47 8 306 0 364 -4 25 -11 46 -16 46 -5 0 -18 -19 -28 -42z"/> <path d="M5757 5018 c-4 -122 -5 -223 -4 -225 7 -6 447 11 447 18 0 15 -40 22 -185 29 -82 4 -158 11 -168 15 -32 13 -40 49 -47 206 -6 148 -11 179 -29 179 -4 0 -11 -100 -14 -222z"/> <path d="M5290 4819 c0 -10 88 -24 97 -15 10 10 1 13 -49 18 -27 3 -48 2 -48 -3z"/> <path d="M3358 4784 c-10 -9 -10 -292 -2 -397 4 -43 11 -77 16 -77 20 0 31 64 37 217 5 132 9 165 23 179 19 19 29 20 510 34 276 8 359 16 332 33 -15 9 -908 20 -916 11z"/> <path d="M4793 4774 c-3 -9 -3 -167 0 -352 4 -186 7 -379 7 -429 0 -51 4 -93 9 -93 5 0 11 84 13 188 3 138 7 194 18 212 10 18 16 76 20 208 7 236 -3 225 188 220 119 -3 135 -5 148 -22 10 -15 14 -55 14 -160 0 -139 14 -226 37 -233 14 -5 26 199 21 357 l-3 115 -233 2 c-204 2 -233 1 -239 -13z"/> <path d="M2831 4723 c-24 -84 -8 -373 19 -373 8 0 20 127 20 220 0 90 -11 190 -21 190 -4 0 -13 -17 -18 -37z"/> <path d="M6247 4754 c-10 -11 -9 -494 2 -494 21 0 33 123 29 292 -4 159 -13 220 -31 202z"/> <path d="M4313 4235 c4 -43 7 -138 7 -212 0 -124 7 -158 25 -115 4 9 10 82 13 161 7 193 5 191 171 191 121 0 221 14 221 31 0 5 -61 9 -137 9 -76 0 -176 3 -222 7 l-84 6 6 -78z"/> <path d="M5282 4303 c-19 -4 -21 -8 -15 -31 5 -15 8 -118 8 -230 l0 -202 235 0 235 0 -3 197 c-2 146 1 204 10 221 l13 24 198 -1 c108 -1 197 2 197 7 0 14 -810 28 -878 15z m409 -82 c23 -18 24 -27 27 -146 5 -159 2 -170 -44 -185 -40 -13 -339 -10 -361 3 -14 9 -19 302 -5 323 11 18 43 21 208 23 136 1 154 -1 175 -18z"/> <path d="M1447 3870 c-3 -12 0 -20 8 -20 8 0 11 8 8 20 -3 11 -7 20 -8 20 -1 0 -5 -9 -8 -20z"/> <path d="M2829 3829 c-8 -5 -28 -9 -46 -9 -17 0 -35 -4 -38 -10 -4 -6 8 -10 30 -10 20 0 58 -9 85 -21 49 -21 60 -21 752 -22 725 0 1132 10 1181 31 16 7 51 12 80 12 41 0 49 3 39 13 -10 9 -233 13 -1030 15 -559 1 -1022 4 -1028 6 -6 2 -17 0 -25 -5z"/> <path d="M2395 3778 c-3 -29 -5 -136 -3 -238 l3 -185 240 0 240 0 -4 -236 c-1 -130 1 -239 5 -241 5 -3 113 -3 241 0 l232 5 -6 51 c-7 62 -18 78 -26 38 -8 -42 -46 -52 -189 -52 -186 0 -188 2 -188 214 -1 157 -9 197 -49 237 -41 41 -79 48 -252 49 -185 0 -179 -7 -179 204 l0 157 32 13 c35 15 29 19 -49 31 l-41 6 -7 -53z"/> <path d="M5205 3823 c-52 -7 -63 -14 -37 -24 36 -14 44 -52 40 -211 -3 -125 -6 -150 -21 -165 -15 -15 -46 -19 -215 -26 -359 -14 -422 -18 -422 -28 0 -5 45 -9 103 -9 56 0 217 -1 357 -2 l255 -1 -1 31 c0 18 -1 124 -2 237 -2 157 -5 205 -14 204 -7 -1 -26 -4 -43 -6z"/> <path d="M5760 3611 c0 -203 7 -258 25 -213 4 9 10 99 14 200 5 161 8 185 24 197 21 15 16 20 -30 30 l-33 7 0 -221z"/> <path d="M1872 3783 c-9 -24 -9 -331 1 -365 19 -70 27 -19 27 177 0 134 -4 205 -10 205 -6 0 -14 -8 -18 -17z"/> <path d="M5279 3344 c-3 -36 4 -430 8 -438 15 -23 26 40 32 190 6 133 10 168 24 181 13 13 48 18 179 24 90 4 171 10 181 14 45 18 3 25 -157 25 -95 0 -194 3 -220 6 -25 4 -46 3 -47 -2z"/> <path d="M4758 3138 c-3 -171 -1 -211 13 -203 12 8 12 342 -1 350 -5 3 -10 -54 -12 -147z"/> <path d="M3360 2628 l0 -240 23 6 c12 3 37 6 55 6 39 0 43 17 5 22 l-28 3 -3 188 c-3 204 2 227 45 227 45 0 12 17 -44 23 l-53 6 0 -241z"/> <path d="M4730 2860 c-42 -8 -30 -14 66 -30 74 -13 393 -9 427 5 46 19 0 25 -207 25 -123 0 -230 2 -238 4 -7 2 -29 0 -48 -4z"/> <path d="M3735 2850 c-3 -6 5 -10 19 -10 15 0 30 -8 36 -19 6 -12 10 -97 10 -206 0 -178 -1 -187 -20 -192 -26 -7 -15 -23 16 -23 l24 0 0 230 0 230 -39 0 c-22 0 -43 -4 -46 -10z"/> <path d="M4320 2818 c0 -42 14 -44 22 -3 2 13 12 21 31 23 42 5 32 22 -13 22 l-40 0 0 -42z"/> <path d="M3840 2364 c0 -9 5 -14 12 -12 18 6 21 28 4 28 -9 0 -16 -7 -16 -16z"/> </g> </svg> 